PathFileType	4	(X/Y/Z)	OpenSim_Sub05_EMGBaseline_Accel.trc
DataRate	CameraRate	NumFrames	NumMarkers	Units	OrigDataRate	OrigDataStartFrame	OrigNumFrames
100	100	13	8	m	100	5955	11909
Frame#	Time	torso_imu_offset_imu	pelvis_imu_offset_imu	tibia_r_imu_offset_imu	femur_r_imu_offset_imu	tibia_l_imu_offset_imu	femur_l_imu_offset_imu	toes_r_imu_offset_imu	toes_l_imu_offset_imu
				X1	Y1	Z1	X2	Y2	Z2	X3	Y3	Z3	X4	Y4	Z4	X5	Y5	Z5	X6	Y6	Z6	X7	Y7	Z7	X8		Y8	Z8	

5955	59.54000000	8.04367900	2.29947700	6.47741700	9.06778600	-1.68904600	2.28431900	5.75369200	4.46956400	2.28613700	5.82369200	-0.13345900	3.68910400	10.07523400	0.02656200	0.08852400	9.46140400	1.02859900	-0.58604800	12.06843400	-3.19919700	9.67523000	4.68309800	1.79066200	11.19918200
5956	59.55000000	8.11678300	2.33015100	6.49362300	9.10550600	-1.81370300	2.22675600	7.30546000	4.79152900	1.51556900	5.89457300	-0.03574500	3.88132200	9.93994500	-0.60478000	-0.05290300	9.60606700	1.09716600	-0.67168500	12.46047700	-2.00021600	9.36975100	4.83298000	1.62199500	11.04251200
5957	59.56000000	8.08814800	2.26479500	6.54110400	9.05701800	-1.78173500	2.11434600	8.98983100	4.92246500	0.86245400	5.93273700	-0.04947300	4.13926200	9.79462500	-1.23734400	-0.31844100	9.76678400	1.33578500	-0.78402300	13.95964100	-1.64974700	8.34170100	4.99478100	1.54458400	10.89805300
5958	59.57000000	8.07568500	2.19101500	6.49875500	8.78916100	-1.68501800	1.94142600	11.32266600	5.11563900	0.13911600	5.86589500	-0.39177800	4.33678900	9.93993900	-1.14965000	-0.76629300	9.63126500	1.54355100	-0.87924600	15.91889100	-2.25002100	6.71214800	4.72222100	1.78512100	11.07620000
5959	59.58000000	7.99026300	2.06425900	6.39499400	8.45286400	-1.72241400	1.89472000	14.50991600	5.25808300	0.93496000	5.56108400	-1.11639600	4.40906000	9.90471900	-0.66939500	-0.98038200	9.53169500	1.64288100	-0.72839000	19.57005600	-3.94543000	5.33677300	4.35657500	2.19074300	11.18404800
5960	59.59000000	7.96032200	2.09133500	6.26497700	8.15436400	-1.79696700	1.77698100	15.61107800	4.13472200	0.76241000	5.70721700	-2.03534000	4.73593100	9.87882100	0.01591600	-1.03422800	9.56503000	1.70782100	-0.52759600	24.66291700	-5.85445000	3.95256800	4.68482100	2.09983300	10.98439100
5961	59.60000000	7.97737500	2.12750800	6.10915100	7.96697200	-1.95316200	1.57378900	13.73102200	3.08160200	-0.58173200	6.53533100	-3.13931600	5.28237400	9.94041700	0.04818000	-1.26010300	9.39375600	1.77650200	-0.50817400	27.44968300	-5.84248500	1.95846800	4.69314100	2.08705300	10.92510800
5962	59.61000000	8.03087200	2.28485000	5.88054300	7.96042800	-2.24568600	1.59227600	12.26754500	3.85108900	-0.47562900	7.72891200	-4.29235900	5.68116900	10.32173700	-0.26210100	-1.19483700	9.36989300	1.93214700	-0.47089900	26.45061900	-3.00817600	-0.74086000	4.56380600	1.99809800	11.17606300
5963	59.62000000	8.29656900	2.42850500	5.91776600	8.11900600	-2.43912100	1.75837200	12.50104900	5.06515900	0.59061800	9.18262400	-5.49566400	6.25143900	10.62956700	0.25220600	-0.79848000	9.54941100	2.14438800	-0.46209900	23.48980400	0.87579800	-3.72314800	4.38548600	2.13631800	11.42548000
5964	59.63000000	8.70492000	2.50836800	6.05382800	8.42598200	-2.44295700	1.97736800	12.69759700	5.87637900	0.68907300	10.95136300	-6.68043200	7.21227500	10.76382300	1.11790500	-0.87148900	9.48096900	2.21944700	-0.55286600	21.33197800	2.93842100	-6.00319100	4.51781200	2.23540000	11.26642600
5965	59.64000000	9.14374300	2.66729300	6.16115100	8.88605800	-2.08193900	2.23675300	11.44776500	5.68995300	-0.42147600	13.03872000	-7.76252600	8.16417100	10.55671000	1.69215800	-0.98428700	9.45119300	2.06500900	-0.95482800	20.68485900	3.11597000	-7.72579600	4.71479000	2.09181100	11.32479700
5966	59.65000000	9.47345200	2.65355400	6.35494400	9.40782800	-1.78579300	2.47308800	10.14319900	4.62025700	-1.50556600	14.37588500	-9.07174600	7.69374600	10.70886000	1.92287300	-0.98359000	9.51290500	1.78577600	-1.41475900	20.11872500	2.20715600	-8.65110300	4.76297800	2.21021400	11.30288700
5967	59.66000000	9.63363400	2.59570100	6.45824500	9.80304000	-1.52052600	2.52385200	9.53152000	3.10065300	-2.66143200	14.72286200	-9.85690100	5.31115800	10.64630400	2.03644900	-1.18589400	9.39018500	1.53249100	-1.78338900	18.03402200	-0.83424799	-8.60690800	4.28157100	2.56972900	11.56167000
